<?xml version="1.0" encoding="UTF-8" standalone="no"?>
<svg
   xmlns:dc="http://purl.org/dc/elements/1.1/"
   xmlns:cc="http://creativecommons.org/ns#"
   xmlns:rdf="http://www.w3.org/1999/02/22-rdf-syntax-ns#"
   xmlns:svg="http://www.w3.org/2000/svg"
   xmlns="http://www.w3.org/2000/svg"
   xmlns:sodipodi="http://sodipodi.sourceforge.net/DTD/sodipodi-0.dtd"
   xmlns:inkscape="http://www.inkscape.org/namespaces/inkscape"
   inkscape:version="1.0 (4035a4fb49, 2020-05-01)"
   height="560"
   width="640"
   sodipodi:docname="clock.svg"
   xml:space="preserve"
   viewBox="0 0 640 560"
   y="0px"
   x="0px"
   id="Capa_1"
   version="1.1"><metadata
   id="metadata71"><rdf:RDF><cc:Work
       rdf:about=""><dc:format>image/svg+xml</dc:format><dc:type
         rdf:resource="http://purl.org/dc/dcmitype/StillImage" /><dc:title></dc:title></cc:Work></rdf:RDF></metadata><defs
   id="defs69" /><sodipodi:namedview
   inkscape:current-layer="Capa_1"
   inkscape:window-maximized="1"
   inkscape:window-y="-8"
   inkscape:window-x="54"
   inkscape:cy="256"
   inkscape:cx="256"
   inkscape:zoom="1.96875"
   showgrid="false"
   id="namedview67"
   inkscape:window-height="1417"
   inkscape:window-width="2498"
   inkscape:pageshadow="2"
   inkscape:pageopacity="0"
   guidetolerance="10"
   gridtolerance="10"
   objecttolerance="10"
   borderopacity="1"
   bordercolor="#666666"
   pagecolor="#ffffff" />
<g
   transform="translate(61.396825,26.920635)"
   id="g34">
	<circle
   id="circle2"
   r="256"
   cy="256"
   cx="256"
   style="fill:#cc4b4c" />
	<path
   id="path4"
   d="m 476.69,256 c 0,2.913 -0.088,5.914 -0.177,8.828 -2.048,52.404 -22.776,102.347 -58.439,140.8 -3.972,4.326 -8.121,8.474 -12.447,12.447 -38.453,35.662 -88.396,56.39 -140.8,58.439 -2.913,0.088 -5.914,0.177 -8.828,0.177 -2.913,0 -5.914,-0.088 -8.828,-0.177 -52.404,-2.048 -102.347,-22.777 -140.8,-58.439 -4.326,-3.972 -8.474,-8.121 -12.447,-12.447 -35.662,-38.453 -56.391,-88.396 -58.439,-140.8 -0.088,-2.913 -0.177,-5.914 -0.177,-8.828 0,-2.913 0.088,-5.914 0.177,-8.828 2.048,-52.404 22.776,-102.347 58.439,-140.8 3.972,-4.326 8.121,-8.474 12.447,-12.447 38.453,-35.662 88.396,-56.39 140.8,-58.439 2.913,-0.088 5.914,-0.177 8.828,-0.177 2.913,0 5.914,0.088 8.828,0.177 52.404,2.048 102.347,22.777 140.8,58.439 4.326,3.972 8.474,8.121 12.447,12.447 35.662,38.453 56.391,88.396 58.439,140.8 0.088,2.914 0.177,5.915 0.177,8.828 z"
   style="fill:#ecf0f1" />
	<path
   id="path6"
   d="m 274.716,246.112 c -3.57,-0.001 -6.788,-2.152 -8.154,-5.45 -1.366,-3.298 -0.611,-7.094 1.913,-9.619 l 78.388,-78.388 c 2.223,-2.264 5.49,-3.16 8.556,-2.348 3.067,0.812 5.462,3.207 6.274,6.274 0.812,3.067 -0.085,6.333 -2.348,8.556 l -78.388,78.388 c -1.654,1.659 -3.9,2.59 -6.241,2.587 z"
   style="fill:#cc4b4c" />
	<g
   id="g24">
		<path
   id="path8"
   d="m 264.828,35.487 v 18.538 c 0,4.875 -3.952,8.828 -8.828,8.828 -4.876,0 -8.828,-3.952 -8.828,-8.828 V 35.487 c 2.913,-0.088 5.914,-0.177 8.828,-0.177 2.913,0 5.914,0.089 8.828,0.177 z"
   style="fill:#35495e" />
		<path
   id="path10"
   d="m 119.437,119.437 c -1.679,1.633 -3.926,2.55 -6.268,2.56 -2.339,-0.026 -4.58,-0.941 -6.268,-2.56 L 93.924,106.372 c 3.972,-4.326 8.121,-8.474 12.447,-12.447 l 13.065,12.977 c 3.444,3.469 3.444,9.066 10e-4,12.535 z"
   style="fill:#35495e" />
		<path
   id="path12"
   d="m 62.852,256 c -0.015,4.869 -3.958,8.813 -8.828,8.828 H 35.487 C 35.399,261.915 35.31,258.914 35.31,256 c 0,-2.913 0.088,-5.914 0.177,-8.828 h 18.538 c 4.869,0.015 8.813,3.959 8.827,8.828 z"
   style="fill:#35495e" />
		<path
   id="path14"
   d="m 119.437,405.098 -13.065,12.977 c -4.326,-3.972 -8.474,-8.121 -12.447,-12.447 l 12.977,-13.065 c 3.469,-3.417 9.045,-3.396 12.488,0.047 3.444,3.443 3.464,9.019 0.047,12.488 z"
   style="fill:#35495e" />
		<path
   id="path16"
   d="m 264.828,457.975 v 18.538 c -2.913,0.088 -5.914,0.177 -8.828,0.177 -2.913,0 -5.914,-0.088 -8.828,-0.177 v -18.538 c 0,-4.875 3.952,-8.828 8.828,-8.828 4.876,0 8.828,3.953 8.828,8.828 z"
   style="fill:#35495e" />
		<path
   id="path18"
   d="m 418.074,405.628 c -3.972,4.326 -8.121,8.474 -12.447,12.447 l -13.065,-12.977 c -3.417,-3.469 -3.396,-9.045 0.047,-12.488 3.443,-3.443 9.019,-3.464 12.488,-0.047 z"
   style="fill:#35495e" />
		<path
   id="path20"
   d="m 476.69,256 c 0,2.913 -0.088,5.914 -0.177,8.828 h -18.538 c -4.875,0 -8.828,-3.952 -8.828,-8.828 0,-4.876 3.952,-8.828 8.828,-8.828 h 18.538 c 0.088,2.914 0.177,5.915 0.177,8.828 z"
   style="fill:#35495e" />
		<path
   id="path22"
   d="m 418.074,106.372 -12.977,13.065 c -1.688,1.619 -3.929,2.534 -6.268,2.56 -2.342,-0.01 -4.589,-0.927 -6.268,-2.56 -3.443,-3.469 -3.443,-9.066 0,-12.535 l 13.065,-12.977 c 4.327,3.973 8.476,8.122 12.448,12.447 z"
   style="fill:#35495e" />
	</g>
	<path
   id="path26"
   d="m 209.569,311.259 c -3.57,-0.001 -6.788,-2.152 -8.154,-5.45 -1.366,-3.298 -0.611,-7.094 1.913,-9.619 l 27.716,-27.715 c 3.447,-3.447 9.036,-3.447 12.483,0 3.447,3.447 3.447,9.036 0,12.483 l -27.716,27.715 c -1.654,1.658 -3.9,2.588 -6.242,2.586 z"
   style="fill:#cc4b4c" />
	<path
   id="path28"
   d="m 210.328,303.169 c 6.895,6.895 6.895,18.073 0,24.968 l -24.968,24.968 -24.968,-24.968 24.968,-24.968 c 6.895,-6.895 18.073,-6.895 24.968,0 z"
   style="fill:#802f34" />
	<path
   id="path30"
   d="m 275.686,273.655 h 77.418 c 9.722,-0.07 17.585,-7.934 17.655,-17.655 -0.029,-9.739 -7.916,-17.627 -17.655,-17.655 h -77.418 l -2.03,-2.03 V 114.759 c -0.07,-9.722 -7.934,-17.585 -17.655,-17.655 -9.739,0.029 -17.627,7.916 -17.655,17.655 v 121.556 z"
   style="fill:#4482c3" />
	<circle
   id="circle32"
   r="26.483"
   cy="256"
   cx="256"
   style="fill:#35495e" />
</g>
<g
   id="g36">
</g>
<g
   id="g38">
</g>
<g
   id="g40">
</g>
<g
   id="g42">
</g>
<g
   id="g44">
</g>
<g
   id="g46">
</g>
<g
   id="g48">
</g>
<g
   id="g50">
</g>
<g
   id="g52">
</g>
<g
   id="g54">
</g>
<g
   id="g56">
</g>
<g
   id="g58">
</g>
<g
   id="g60">
</g>
<g
   id="g62">
</g>
<g
   id="g64">
</g>
</svg>
