<?xml version="1.0" encoding="iso-8859-1"?>
<!-- Generator: Adobe Illustrator 19.0.0, SVG Export Plug-In . SVG Version: 6.00 Build 0)  -->
<svg version="1.1" id="Capa_1" xmlns="http://www.w3.org/2000/svg" xmlns:xlink="http://www.w3.org/1999/xlink" x="0px" y="0px"
	 viewBox="0 0 512.023 512.023" style="enable-background:new 0 0 512.023 512.023;" xml:space="preserve">
<path style="fill:#2196F3;" d="M472.417,64.449l-213.333-64c-1.997-0.598-4.126-0.598-6.123,0l-213.333,64
	c-4.518,1.349-7.615,5.504-7.616,10.219v234.667c0,94.315,143.829,178.219,220.843,202.197c2.083,0.655,4.317,0.655,6.4,0
	c76.928-23.979,220.757-107.883,220.757-202.197V74.667C480.013,69.958,476.926,65.805,472.417,64.449z"/>
<path style="fill:#FAFAFA;" d="M256.011,467.009c-5.891,0-10.667-4.776-10.667-10.667V245.334c0-5.891,4.776-10.667,10.667-10.667
	h170.667c5.891,0,10.667,4.776,10.667,10.667v64c0,54.784-93.653,126.72-177.728,157.035
	C258.46,466.785,257.241,467.002,256.011,467.009z"/>
<path style="fill:#90CAF9;" d="M256.011,256.001H85.345c-5.891,0-10.667-4.776-10.667-10.667V106.411
	c-0.002-4.709,3.085-8.862,7.595-10.219l170.667-51.2c5.641-1.697,11.59,1.501,13.287,7.143c0.3,0.998,0.452,2.034,0.452,3.076
	v190.123C266.678,251.225,261.902,256.001,256.011,256.001z"/>
<g>
</g>
<g>
</g>
<g>
</g>
<g>
</g>
<g>
</g>
<g>
</g>
<g>
</g>
<g>
</g>
<g>
</g>
<g>
</g>
<g>
</g>
<g>
</g>
<g>
</g>
<g>
</g>
<g>
</g>
</svg>
