<?xml version="1.0" encoding="UTF-8" standalone="no"?>
<svg
   xmlns:dc="http://purl.org/dc/elements/1.1/"
   xmlns:cc="http://creativecommons.org/ns#"
   xmlns:rdf="http://www.w3.org/1999/02/22-rdf-syntax-ns#"
   xmlns:svg="http://www.w3.org/2000/svg"
   xmlns="http://www.w3.org/2000/svg"
   xmlns:sodipodi="http://sodipodi.sourceforge.net/DTD/sodipodi-0.dtd"
   xmlns:inkscape="http://www.inkscape.org/namespaces/inkscape"
   width="640"
   height="640"
   viewBox="0 0 169.33333 169.33334"
   version="1.1"
   id="svg8"
   inkscape:version="1.0 (4035a4fb49, 2020-05-01)"
   sodipodi:docname="question.svg">
  <defs
     id="defs2" />
  <sodipodi:namedview
     id="base"
     pagecolor="#ffffff"
     bordercolor="#666666"
     borderopacity="1.0"
     inkscape:pageopacity="0.0"
     inkscape:pageshadow="2"
     inkscape:zoom="0.98994949"
     inkscape:cx="504.19053"
     inkscape:cy="508.63724"
     inkscape:document-units="mm"
     inkscape:current-layer="g891"
     inkscape:document-rotation="0"
     showgrid="false"
     units="px"
     inkscape:window-width="2498"
     inkscape:window-height="1417"
     inkscape:window-x="54"
     inkscape:window-y="-8"
     inkscape:window-maximized="1" />
  <metadata
     id="metadata5">
    <rdf:RDF>
      <cc:Work
         rdf:about="">
        <dc:format>image/svg+xml</dc:format>
        <dc:type
           rdf:resource="http://purl.org/dc/dcmitype/StillImage" />
        <dc:title />
      </cc:Work>
    </rdf:RDF>
  </metadata>
  <g
     inkscape:label="Layer 1"
     inkscape:groupmode="layer"
     id="layer1">
    <g
       id="g891"
       transform="matrix(0.3373049,0,0,0.33999919,1.3190892,0.53604638)">
      <path
         id="path833"
         d="M 496.158,248.085 C 496.158,111.063 385.089,0.003 248.083,0.003 111.07,0.003 0,111.063 0,248.085 c 0,137.001 111.07,248.07 248.083,248.07 137.006,0 248.075,-111.069 248.075,-248.07 z"
         style="fill:#25b7d3" />
      <path
         id="path835"
         d="m 138.216,173.592 c 0,-13.915 4.467,-28.015 13.403,-42.297 8.933,-14.282 21.973,-26.11 39.111,-35.486 17.139,-9.373 37.134,-14.062 59.985,-14.062 21.238,0 39.99,3.921 56.25,11.755 16.26,7.838 28.818,18.495 37.683,31.97 8.861,13.479 13.293,28.125 13.293,43.945 0,12.452 -2.527,23.367 -7.581,32.739 -5.054,9.376 -11.062,17.469 -18.018,24.279 -6.959,6.812 -19.446,18.275 -37.463,34.388 -4.981,4.542 -8.975,8.535 -11.975,11.976 -3.004,3.443 -5.239,6.592 -6.702,9.447 -1.466,2.857 -2.603,5.713 -3.406,8.57 -0.807,2.855 -2.015,7.875 -3.625,15.051 -2.784,15.236 -11.501,22.852 -26.147,22.852 -7.618,0 -14.028,-2.489 -19.226,-7.471 -5.201,-4.979 -7.8,-12.377 -7.8,-22.192 0,-12.305 1.902,-22.962 5.713,-31.97 3.808,-9.01 8.861,-16.92 15.161,-23.73 6.296,-6.812 14.794,-14.904 25.488,-24.28 9.373,-8.202 16.15,-14.392 20.325,-18.567 4.175,-4.175 7.69,-8.823 10.547,-13.953 2.856,-5.126 4.285,-10.691 4.285,-16.699 0,-11.718 -4.36,-21.605 -13.074,-29.663 -8.717,-8.054 -19.961,-12.085 -33.728,-12.085 -16.116,0 -27.981,4.065 -35.596,12.195 -7.618,8.13 -14.062,20.105 -19.336,35.925 -4.981,16.555 -14.43,24.829 -28.345,24.829 -8.206,0 -15.127,-2.891 -20.764,-8.679 -5.639,-5.786 -8.458,-12.048 -8.458,-18.787 z m 107.226,240.82 c -8.937,0 -16.737,-2.895 -23.401,-8.68 -6.667,-5.784 -9.998,-13.877 -9.998,-24.279 0,-9.229 3.22,-16.991 9.668,-23.291 6.444,-6.297 14.354,-9.448 23.73,-9.448 9.229,0 16.991,3.151 23.291,9.448 6.296,6.3 9.448,14.062 9.448,23.291 0,10.255 -3.296,18.312 -9.888,24.17 -6.592,5.858 -14.208,8.789 -22.85,8.789 z"
         style="fill:#ffffff" />
      <g
         id="g837" />
      <g
         id="g839" />
      <g
         id="g841" />
      <g
         id="g843" />
      <g
         id="g845" />
      <g
         id="g847" />
      <g
         id="g849" />
      <g
         id="g851" />
      <g
         id="g853" />
      <g
         id="g855" />
      <g
         id="g857" />
      <g
         id="g859" />
      <g
         id="g861" />
      <g
         id="g863" />
      <g
         id="g865" />
    </g>
  </g>
</svg>
